<?xml version="1.0" encoding="utf-8"?>
<!-- Generator: Adobe Illustrator 25.0.0, SVG Export Plug-In . SVG Version: 6.00 Build 0)  -->
<svg version="1.1" id="Calque_2_1_" xmlns="http://www.w3.org/2000/svg" xmlns:xlink="http://www.w3.org/1999/xlink" x="0px"
	 y="0px" viewBox="0 0 285.5 273.8" style="enable-background:new 0 0 285.5 273.8;" xml:space="preserve">
<style type="text/css">
	.st0{fill:#0C2D6A;}
</style>
<path class="st0" d="M131.4,13.2l-18,19c0,0-10-15-28,4s-51,51-51,51s-21,14.9,0,33.5s100,101.5,100,101.5l66-64c0,0,28-31,74-1
	c0,0,17,14,3,27l-75,76c0,0-30,28-61,2l16-18c0,0,16,13,28-4l67-66c0,0-13-12-36,3l-85,84c0,0-27,27-58,2l-61-61c0,0-28-27,0-60
	l17,17c0,0-12,18,5,30l54,54c0,0,14,13,30-4l-108-107c0,0-21-25-3-52l61-63C68.4,17.2,92.4-13.8,131.4,13.2z"/>
<path class="st0" d="M279.8,89.4l-73-73c0,0-30-34-64-4L41.3,113.9l17,17l80-79l63.5,63.5c0,0,29,27,69,6
	C270.8,121.4,296.8,107.4,279.8,89.4z M214.6,93.3l-59-59c17-18,28-4,28-4l71,71C229.5,110.3,214.5,93.3,214.6,93.3L214.6,93.3z"/>
</svg>
