<?xml version="1.0" encoding="UTF-8"?><svg xmlns="http://www.w3.org/2000/svg" xmlns:xlink="http://www.w3.org/1999/xlink" width="375" zoomAndPan="magnify" viewBox="0 0 375 374.999991" height="374.999991" preserveAspectRatio="xMidYMid meet" version="1.0"><defs><clipPath id="clip-0"><path d="M 163 10 L 234 10 L 234 75 L 163 75 Z M 163 10 " clip-rule="nonzero"/></clipPath><clipPath id="clip-1"><path d="M 149.195312 17.507812 L 220.03125 -2.105469 L 236.441406 57.164062 L 165.605469 76.777344 Z M 149.195312 17.507812 " clip-rule="nonzero"/></clipPath><clipPath id="clip-2"><path d="M 149.195312 17.507812 L 220.03125 -2.105469 L 236.441406 57.164062 L 165.605469 76.777344 Z M 149.195312 17.507812 " clip-rule="nonzero"/></clipPath></defs><g clip-path="url(#clip-0)"><g clip-path="url(#clip-1)"><g clip-path="url(#clip-2)"><path fill="rgb(100%, 61.959839%, 17.248535%)" d="M 227.539062 56.738281 C 225.21875 57.378906 222.960938 56.015625 222.355469 53.828125 C 221.71875 51.527344 223.101562 49.28125 225.308594 48.667969 C 227.511719 48.058594 229.882812 49.382812 230.492188 51.578125 C 231.097656 53.765625 229.746094 56.125 227.539062 56.738281 Z M 196.535156 54.523438 C 193.042969 55.488281 189.34375 53.417969 188.382812 49.957031 C 187.429688 46.503906 189.535156 42.816406 193.027344 41.851562 C 196.507812 40.886719 200.210938 42.964844 201.167969 46.417969 C 202.128906 49.878906 200.019531 53.558594 196.535156 54.523438 Z M 169.578125 19.066406 C 168.941406 16.757812 170.316406 14.519531 172.53125 13.90625 C 174.734375 13.296875 177.109375 14.625 177.714844 16.8125 C 178.351562 19.117188 176.96875 21.363281 174.761719 21.972656 C 172.582031 22.703125 170.214844 21.371094 169.578125 19.066406 Z M 204.679688 17.535156 C 206.886719 16.921875 209.257812 18.253906 209.867188 20.441406 C 210.472656 22.628906 209.121094 24.988281 206.914062 25.601562 C 204.59375 26.242188 202.335938 24.878906 201.730469 22.695312 C 201.125 20.507812 202.359375 18.175781 204.679688 17.535156 Z M 171.800781 70.929688 C 169.476562 71.574219 167.222656 70.210938 166.617188 68.023438 C 165.976562 65.710938 167.363281 63.472656 169.566406 62.863281 C 171.195312 62.410156 172.992188 63.027344 173.960938 64.25 L 173.992188 64.367188 C 174.347656 64.761719 174.621094 65.308594 174.75 65.769531 C 175.390625 68.074219 174.011719 70.316406 171.800781 70.929688 Z M 228.511719 45.792969 C 227.167969 45.425781 225.792969 45.433594 224.507812 45.789062 C 222.539062 46.332031 220.8125 47.800781 219.949219 49.652344 L 203.734375 44.84375 L 203.769531 44.957031 C 203.074219 42.914062 201.601562 41.214844 199.679688 40.132812 L 204.382812 28.65625 C 205.558594 28.828125 206.699219 28.882812 207.742188 28.59375 C 209.832031 28.015625 211.554688 26.546875 212.472656 24.429688 C 213.964844 20.796875 212.316406 16.660156 208.632812 15.074219 C 207.210938 14.480469 205.425781 14.347656 203.914062 14.769531 C 201.828125 15.347656 200.101562 16.8125 199.1875 18.929688 C 198.410156 20.636719 198.453125 22.609375 199.195312 24.386719 C 199.664062 25.621094 200.566406 26.609375 201.664062 27.421875 L 196.871094 39.046875 C 194.996094 38.578125 193.15625 38.710938 191.359375 39.460938 C 191.246094 39.488281 191.015625 39.554688 190.929688 39.703125 C 190.8125 39.734375 190.695312 39.765625 190.695312 39.765625 L 178.703125 23.113281 C 181.160156 20.695312 181.601562 16.851562 179.695312 14.027344 C 177.992188 11.519531 174.8125 10.421875 171.90625 11.226562 C 171.09375 11.449219 170.433594 11.757812 169.796875 12.175781 C 168.214844 13.238281 167.171875 14.890625 166.804688 16.730469 C 166.4375 18.570312 166.863281 20.558594 167.925781 22.128906 C 169.621094 24.636719 172.800781 25.738281 175.703125 24.933594 C 175.933594 24.871094 176.050781 24.835938 176.285156 24.773438 L 188.308594 41.542969 C 185.851562 43.960938 184.820312 47.476562 185.746094 50.8125 C 185.902344 51.386719 186.210938 52.046875 186.488281 52.59375 L 175.238281 61.660156 C 175.09375 61.582031 175.0625 61.464844 174.914062 61.382812 C 174.613281 61.214844 174.441406 61.015625 174.175781 60.964844 C 173.730469 60.71875 173.316406 60.585938 172.90625 60.449219 C 172.640625 60.398438 172.492188 60.3125 172.226562 60.261719 C 171.078125 59.714844 169.851562 59.804688 168.683594 60.128906 C 167.757812 60.386719 167.011719 60.839844 166.257812 61.300781 C 164.710938 62.46875 163.78125 64.089844 163.5625 66.015625 C 163.347656 67.9375 163.855469 69.777344 165.027344 71.316406 C 166.808594 73.675781 169.808594 74.582031 172.597656 73.8125 C 173.53125 73.550781 174.277344 73.097656 175.027344 72.640625 C 177.296875 70.898438 178.253906 68.027344 177.636719 65.34375 C 177.605469 65.230469 177.574219 65.113281 177.574219 65.113281 C 177.507812 64.882812 177.476562 64.765625 177.410156 64.535156 C 177.410156 64.535156 177.378906 64.417969 177.347656 64.304688 C 177.316406 64.1875 177.253906 63.960938 177.105469 63.878906 L 188.09375 54.753906 C 190.480469 57.074219 194.011719 58.074219 197.269531 57.175781 C 199.125 56.660156 200.828125 55.574219 201.933594 54.152344 C 202.019531 54.003906 202.21875 53.820312 202.300781 53.675781 C 202.382812 53.527344 202.585938 53.347656 202.636719 53.082031 C 202.722656 52.941406 202.839844 52.910156 202.808594 52.792969 C 202.894531 52.644531 202.976562 52.496094 203.0625 52.347656 C 203.226562 52.054688 203.277344 51.789062 203.449219 51.496094 C 203.617188 51.203125 203.671875 50.941406 203.722656 50.675781 C 203.808594 50.527344 203.777344 50.414062 203.863281 50.265625 C 204.046875 49.597656 204.089844 48.835938 204.132812 48.085938 L 219.226562 52.464844 C 219.257812 52.582031 219.257812 52.582031 219.171875 52.722656 C 219.160156 55.828125 221.183594 58.621094 224.1875 59.527344 C 225.539062 59.894531 226.910156 59.890625 228.191406 59.535156 C 230.628906 58.859375 232.40625 57.128906 233.109375 54.695312 C 234.453125 50.980469 232.226562 47.003906 228.515625 45.800781 L 228.511719 45.792969 " fill-opacity="1" fill-rule="nonzero"/></g></g></g></svg>