<?xml version="1.0" encoding="UTF-8"?><svg xmlns="http://www.w3.org/2000/svg" xmlns:xlink="http://www.w3.org/1999/xlink" width="375" zoomAndPan="magnify" viewBox="0 0 375 374.999991" height="374.999991" preserveAspectRatio="xMidYMid meet" version="1.0"><defs><clipPath id="clip-0"><path d="M 0 58 L 122 58 L 122 163 L 0 163 Z M 0 58 " clip-rule="nonzero"/></clipPath><clipPath id="clip-1"><path d="M 18.859375 172.574219 L -0.0234375 60.910156 L 111.640625 42.027344 L 130.523438 153.691406 Z M 18.859375 172.574219 " clip-rule="nonzero"/></clipPath><clipPath id="clip-2"><path d="M 18.859375 172.574219 L -0.0234375 60.910156 L 111.640625 42.027344 L 130.523438 153.691406 Z M 18.859375 172.574219 " clip-rule="nonzero"/></clipPath></defs><g clip-path="url(#clip-0)"><g clip-path="url(#clip-1)"><g clip-path="url(#clip-2)"><path fill="rgb(24.308777%, 97.24884%, 95.689392%)" d="M 2.089844 73.417969 C 5.230469 91.980469 22.175781 114.730469 46.894531 127.75 L 49.238281 141.613281 C 50.933594 151.632812 59.382812 156.109375 67.957031 158.726562 L 79.4375 162.226562 L 75.207031 137.222656 L 96.785156 106.863281 L 121.789062 102.632812 L 114.707031 92.945312 C 109.417969 85.707031 102.410156 79.199219 92.390625 80.894531 L 78.527344 83.238281 C 58.101562 64.175781 31.046875 55.652344 12.484375 58.792969 L -0.0234375 60.910156 Z M 31.800781 91.140625 C 30.992188 86.359375 34.210938 81.828125 38.992188 81.019531 C 43.773438 80.210938 48.304688 83.433594 49.113281 88.214844 C 49.917969 92.992188 46.699219 97.523438 41.917969 98.332031 C 37.136719 99.140625 32.609375 95.921875 31.800781 91.140625 Z M 93.25 138.621094 L 98.3125 142.21875 C 105.621094 147.414062 121.414062 147.214844 121.414062 147.214844 C 121.414062 147.214844 117.214844 132.804688 109.101562 127.039062 L 104.039062 123.441406 Z M 93.25 138.621094 " fill-opacity="1" fill-rule="nonzero"/></g></g></g></svg>