<?xml version="1.0" encoding="UTF-8"?><svg xmlns="http://www.w3.org/2000/svg" xmlns:xlink="http://www.w3.org/1999/xlink" width="375" zoomAndPan="magnify" viewBox="0 0 375 374.999991" height="374.999991" preserveAspectRatio="xMidYMid meet" version="1.0"><defs><clipPath id="clip-0"><path d="M 220 231 L 375 231 L 375 375 L 220 375 Z M 220 231 " clip-rule="nonzero"/></clipPath><clipPath id="clip-1"><path d="M 456.074219 285.777344 L 399.917969 520.65625 L 165.039062 464.5 L 221.195312 229.617188 Z M 456.074219 285.777344 " clip-rule="nonzero"/></clipPath><clipPath id="clip-2"><path d="M 456.074219 285.777344 L 399.917969 520.65625 L 165.039062 464.5 L 221.195312 229.617188 Z M 456.074219 285.777344 " clip-rule="nonzero"/></clipPath></defs><g clip-path="url(#clip-0)"><g clip-path="url(#clip-1)"><g clip-path="url(#clip-2)"><path fill="rgb(24.308777%, 97.24884%, 95.689392%)" d="M 404.125 481.363281 C 410.179688 477.644531 412.074219 469.726562 408.355469 463.671875 L 289.691406 270.4375 L 288.050781 269.4375 L 227.417969 232.234375 C 224.355469 230.367188 220.4375 232.773438 220.714844 236.347656 L 226.46875 307.257812 L 226.617188 309.171875 L 345.28125 502.40625 C 349 508.460938 356.917969 510.351562 362.972656 506.636719 Z M 251.058594 299.15625 C 251.03125 299.148438 251.023438 299.175781 251 299.171875 C 251 299.171875 250.992188 299.195312 250.960938 299.214844 C 250.972656 299.164062 250.953125 299.132812 250.957031 299.105469 C 250.984375 299.113281 251.03125 299.148438 251.058594 299.15625 Z M 269.804688 287.644531 C 269.773438 287.664062 269.746094 287.65625 269.746094 287.65625 C 269.714844 287.679688 269.707031 287.703125 269.707031 287.703125 C 269.714844 287.675781 269.699219 287.621094 269.707031 287.59375 C 269.730469 287.597656 269.75 287.632812 269.804688 287.644531 Z M 234.496094 306.605469 L 230.851562 261.425781 L 245.195312 252.617188 L 283.839844 276.304688 L 284.339844 277.113281 C 283.992188 279.710938 282.578125 282.164062 280.15625 283.628906 C 275.945312 286.214844 270.40625 284.886719 267.824219 280.679688 C 267.21875 279.734375 265.992188 279.441406 265.050781 280.015625 C 264.085938 280.585938 263.789062 281.839844 264.390625 282.785156 C 266.976562 286.996094 265.652344 292.535156 261.433594 295.148438 C 257.199219 297.726562 251.660156 296.402344 249.074219 292.191406 C 248.503906 291.226562 247.25 290.925781 246.304688 291.53125 C 245.367188 292.105469 245.070312 293.335938 245.640625 294.300781 C 248.226562 298.507812 246.902344 304.046875 242.695312 306.632812 C 240.292969 308.132812 237.464844 308.285156 234.992188 307.417969 Z M 234.496094 306.605469 " fill-opacity="1" fill-rule="nonzero"/></g></g></g></svg>