<?xml version="1.0" encoding="UTF-8"?><svg xmlns="http://www.w3.org/2000/svg" xmlns:xlink="http://www.w3.org/1999/xlink" width="375" zoomAndPan="magnify" viewBox="0 0 375 374.999991" height="374.999991" preserveAspectRatio="xMidYMid meet" version="1.0"><defs><clipPath id="clip-0"><path d="M 134 88 L 202 88 L 202 178 L 134 178 Z M 134 88 " clip-rule="nonzero"/></clipPath><clipPath id="clip-1"><path d="M 144.441406 79.46875 L 210.644531 98.910156 L 177.257812 212.609375 L 111.050781 193.167969 Z M 144.441406 79.46875 " clip-rule="nonzero"/></clipPath><clipPath id="clip-2"><path d="M 144.441406 79.46875 L 210.644531 98.910156 L 177.257812 212.609375 L 111.050781 193.167969 Z M 144.441406 79.46875 " clip-rule="nonzero"/></clipPath><clipPath id="clip-3"><path d="M 133 87 L 203 87 L 203 179 L 133 179 Z M 133 87 " clip-rule="nonzero"/></clipPath><clipPath id="clip-4"><path d="M 144.441406 79.46875 L 210.644531 98.910156 L 177.257812 212.609375 L 111.050781 193.167969 Z M 144.441406 79.46875 " clip-rule="nonzero"/></clipPath><clipPath id="clip-5"><path d="M 144.441406 79.46875 L 210.644531 98.910156 L 177.257812 212.609375 L 111.050781 193.167969 Z M 144.441406 79.46875 " clip-rule="nonzero"/></clipPath><clipPath id="clip-6"><path d="M 134 194 L 158 194 L 158 203 L 134 203 Z M 134 194 " clip-rule="nonzero"/></clipPath><clipPath id="clip-7"><path d="M 144.441406 79.46875 L 210.644531 98.910156 L 177.257812 212.609375 L 111.050781 193.167969 Z M 144.441406 79.46875 " clip-rule="nonzero"/></clipPath><clipPath id="clip-8"><path d="M 144.441406 79.46875 L 210.644531 98.910156 L 177.257812 212.609375 L 111.050781 193.167969 Z M 144.441406 79.46875 " clip-rule="nonzero"/></clipPath><clipPath id="clip-9"><path d="M 133 193 L 159 193 L 159 204 L 133 204 Z M 133 193 " clip-rule="nonzero"/></clipPath><clipPath id="clip-10"><path d="M 144.441406 79.46875 L 210.644531 98.910156 L 177.257812 212.609375 L 111.050781 193.167969 Z M 144.441406 79.46875 " clip-rule="nonzero"/></clipPath><clipPath id="clip-11"><path d="M 144.441406 79.46875 L 210.644531 98.910156 L 177.257812 212.609375 L 111.050781 193.167969 Z M 144.441406 79.46875 " clip-rule="nonzero"/></clipPath><clipPath id="clip-12"><path d="M 132 191 L 160 191 L 160 202 L 132 202 Z M 132 191 " clip-rule="nonzero"/></clipPath><clipPath id="clip-13"><path d="M 144.441406 79.46875 L 210.644531 98.910156 L 177.257812 212.609375 L 111.050781 193.167969 Z M 144.441406 79.46875 " clip-rule="nonzero"/></clipPath><clipPath id="clip-14"><path d="M 144.441406 79.46875 L 210.644531 98.910156 L 177.257812 212.609375 L 111.050781 193.167969 Z M 144.441406 79.46875 " clip-rule="nonzero"/></clipPath><clipPath id="clip-15"><path d="M 131 190 L 161 190 L 161 203 L 131 203 Z M 131 190 " clip-rule="nonzero"/></clipPath><clipPath id="clip-16"><path d="M 144.441406 79.46875 L 210.644531 98.910156 L 177.257812 212.609375 L 111.050781 193.167969 Z M 144.441406 79.46875 " clip-rule="nonzero"/></clipPath><clipPath id="clip-17"><path d="M 144.441406 79.46875 L 210.644531 98.910156 L 177.257812 212.609375 L 111.050781 193.167969 Z M 144.441406 79.46875 " clip-rule="nonzero"/></clipPath><clipPath id="clip-18"><path d="M 132 185 L 163 185 L 163 197 L 132 197 Z M 132 185 " clip-rule="nonzero"/></clipPath><clipPath id="clip-19"><path d="M 144.441406 79.46875 L 210.644531 98.910156 L 177.257812 212.609375 L 111.050781 193.167969 Z M 144.441406 79.46875 " clip-rule="nonzero"/></clipPath><clipPath id="clip-20"><path d="M 144.441406 79.46875 L 210.644531 98.910156 L 177.257812 212.609375 L 111.050781 193.167969 Z M 144.441406 79.46875 " clip-rule="nonzero"/></clipPath><clipPath id="clip-21"><path d="M 131 184 L 164 184 L 164 198 L 131 198 Z M 131 184 " clip-rule="nonzero"/></clipPath><clipPath id="clip-22"><path d="M 144.441406 79.46875 L 210.644531 98.910156 L 177.257812 212.609375 L 111.050781 193.167969 Z M 144.441406 79.46875 " clip-rule="nonzero"/></clipPath><clipPath id="clip-23"><path d="M 144.441406 79.46875 L 210.644531 98.910156 L 177.257812 212.609375 L 111.050781 193.167969 Z M 144.441406 79.46875 " clip-rule="nonzero"/></clipPath><clipPath id="clip-24"><path d="M 134 180 L 164 180 L 164 192 L 134 192 Z M 134 180 " clip-rule="nonzero"/></clipPath><clipPath id="clip-25"><path d="M 144.441406 79.46875 L 210.644531 98.910156 L 177.257812 212.609375 L 111.050781 193.167969 Z M 144.441406 79.46875 " clip-rule="nonzero"/></clipPath><clipPath id="clip-26"><path d="M 144.441406 79.46875 L 210.644531 98.910156 L 177.257812 212.609375 L 111.050781 193.167969 Z M 144.441406 79.46875 " clip-rule="nonzero"/></clipPath><clipPath id="clip-27"><path d="M 133 179 L 165 179 L 165 193 L 133 193 Z M 133 179 " clip-rule="nonzero"/></clipPath><clipPath id="clip-28"><path d="M 144.441406 79.46875 L 210.644531 98.910156 L 177.257812 212.609375 L 111.050781 193.167969 Z M 144.441406 79.46875 " clip-rule="nonzero"/></clipPath><clipPath id="clip-29"><path d="M 144.441406 79.46875 L 210.644531 98.910156 L 177.257812 212.609375 L 111.050781 193.167969 Z M 144.441406 79.46875 " clip-rule="nonzero"/></clipPath><clipPath id="clip-30"><path d="M 134 174 L 167 174 L 167 187 L 134 187 Z M 134 174 " clip-rule="nonzero"/></clipPath><clipPath id="clip-31"><path d="M 144.441406 79.46875 L 210.644531 98.910156 L 177.257812 212.609375 L 111.050781 193.167969 Z M 144.441406 79.46875 " clip-rule="nonzero"/></clipPath><clipPath id="clip-32"><path d="M 144.441406 79.46875 L 210.644531 98.910156 L 177.257812 212.609375 L 111.050781 193.167969 Z M 144.441406 79.46875 " clip-rule="nonzero"/></clipPath><clipPath id="clip-33"><path d="M 133 173 L 168 173 L 168 188 L 133 188 Z M 133 173 " clip-rule="nonzero"/></clipPath><clipPath id="clip-34"><path d="M 144.441406 79.46875 L 210.644531 98.910156 L 177.257812 212.609375 L 111.050781 193.167969 Z M 144.441406 79.46875 " clip-rule="nonzero"/></clipPath><clipPath id="clip-35"><path d="M 144.441406 79.46875 L 210.644531 98.910156 L 177.257812 212.609375 L 111.050781 193.167969 Z M 144.441406 79.46875 " clip-rule="nonzero"/></clipPath></defs><g clip-path="url(#clip-0)"><g clip-path="url(#clip-1)"><g clip-path="url(#clip-2)"><path fill="rgb(99.609375%, 45.878601%, 30.979919%)" d="M 193.25 144.300781 C 194.9375 142.179688 196.449219 139.941406 197.691406 137.5625 C 198.65625 135.726562 199.433594 133.769531 200.019531 131.777344 C 205.246094 113.984375 195.0625 95.324219 177.273438 90.101562 C 159.488281 84.878906 140.832031 95.066406 135.609375 112.863281 C 133.515625 119.992188 134.320312 127.296875 135.804688 134.449219 C 136.277344 136.726562 136.835938 138.984375 137.484375 141.21875 C 138.832031 145.871094 141.714844 150.699219 139.21875 159.945312 L 138.3125 163.03125 C 137.160156 166.957031 139.410156 171.078125 143.339844 172.234375 L 161.414062 177.542969 C 165.34375 178.695312 169.464844 176.445312 170.617188 172.515625 L 171.648438 169.007812 C 174.566406 160.222656 179.507812 157.75 183.097656 154.613281 C 186.675781 151.492188 190.242188 148.089844 193.25 144.300781 " fill-opacity="1" fill-rule="nonzero"/></g></g></g><g clip-path="url(#clip-3)"><g clip-path="url(#clip-4)"><g clip-path="url(#clip-5)"><path fill="rgb(85.488892%, 37.649536%, 28.239441%)" d="M 193.25 144.300781 L 193.988281 144.886719 C 195.703125 142.730469 197.253906 140.441406 198.527344 138 C 199.519531 136.105469 200.320312 134.089844 200.921875 132.042969 C 206.292969 113.75 195.824219 94.570312 177.539062 89.195312 C 159.253906 83.828125 140.078125 94.304688 134.703125 112.597656 C 133.625 116.277344 133.292969 119.992188 133.421875 123.679688 C 133.550781 127.371094 134.132812 131.035156 134.882812 134.640625 C 135.359375 136.941406 135.925781 139.222656 136.578125 141.480469 C 137.28125 143.894531 138.316406 146.214844 138.871094 149.039062 C 139.417969 151.863281 139.519531 155.203125 138.3125 159.699219 L 139.21875 159.945312 L 138.316406 159.679688 L 137.410156 162.765625 C 136.109375 167.191406 138.644531 171.835938 143.074219 173.136719 L 161.148438 178.445312 C 165.578125 179.742188 170.21875 177.207031 171.519531 172.78125 L 172.550781 169.273438 L 171.648438 169.007812 L 172.539062 169.304688 C 173.960938 165.039062 175.832031 162.375 177.796875 160.347656 C 179.761719 158.324219 181.847656 156.949219 183.714844 155.324219 C 187.316406 152.179688 190.921875 148.742188 193.988281 144.886719 L 192.515625 143.714844 C 189.558594 147.433594 186.035156 150.800781 182.476562 153.90625 C 180.753906 155.414062 178.582031 156.84375 176.445312 159.035156 C 174.3125 161.226562 172.253906 164.195312 170.753906 168.710938 L 170.742188 168.742188 L 169.714844 172.25 C 169.210938 173.96875 168.0625 175.308594 166.605469 176.105469 C 165.148438 176.902344 163.398438 177.140625 161.679688 176.636719 L 143.605469 171.328125 C 141.886719 170.824219 140.542969 169.675781 139.746094 168.21875 C 138.953125 166.761719 138.714844 165.011719 139.21875 163.292969 L 140.128906 160.1875 C 141.414062 155.441406 141.320312 151.742188 140.714844 148.675781 C 140.113281 145.613281 139.03125 143.195312 138.386719 140.957031 C 137.75 138.746094 137.191406 136.511719 136.726562 134.257812 C 135.988281 130.710938 135.425781 127.148438 135.304688 123.613281 C 135.183594 120.082031 135.496094 116.578125 136.511719 113.128906 C 139.050781 104.476562 144.851562 97.683594 152.183594 93.675781 C 159.515625 89.671875 168.363281 88.464844 177.007812 91.003906 C 185.65625 93.542969 192.445312 99.34375 196.449219 106.675781 C 200.449219 114.011719 201.65625 122.863281 199.117188 131.511719 C 198.546875 133.445312 197.792969 135.347656 196.859375 137.125 C 195.648438 139.445312 194.171875 141.632812 192.515625 143.714844 L 193.25 144.300781 " fill-opacity="1" fill-rule="nonzero"/></g></g></g><g clip-path="url(#clip-6)"><g clip-path="url(#clip-7)"><g clip-path="url(#clip-8)"><path fill="rgb(99.609375%, 45.878601%, 30.979919%)" d="M 134.039062 194.253906 L 140.023438 199.667969 C 142.238281 201.671875 146.421875 202.898438 149.367188 202.414062 L 157.332031 201.09375 L 134.039062 194.253906 " fill-opacity="1" fill-rule="nonzero"/></g></g></g><g clip-path="url(#clip-9)"><g clip-path="url(#clip-10)"><g clip-path="url(#clip-11)"><path fill="rgb(85.488892%, 37.649536%, 28.239441%)" d="M 134.039062 194.253906 L 133.40625 194.953125 L 139.394531 200.367188 C 140.648438 201.496094 142.355469 202.347656 144.15625 202.878906 C 145.957031 203.40625 147.851562 203.613281 149.519531 203.339844 L 157.484375 202.023438 C 157.917969 201.953125 158.242188 201.589844 158.269531 201.152344 C 158.296875 200.714844 158.015625 200.3125 157.597656 200.191406 L 134.304688 193.351562 C 133.882812 193.226562 133.429688 193.414062 133.21875 193.792969 C 133.003906 194.175781 133.082031 194.660156 133.40625 194.953125 L 134.039062 194.253906 L 133.773438 195.160156 L 153.113281 200.839844 L 149.214844 201.484375 C 147.9375 201.699219 146.265625 201.539062 144.6875 201.070312 C 143.105469 200.609375 141.613281 199.84375 140.65625 198.96875 L 134.671875 193.554688 L 134.039062 194.253906 L 133.773438 195.160156 L 134.039062 194.253906 " fill-opacity="1" fill-rule="nonzero"/></g></g></g><g clip-path="url(#clip-12)"><g clip-path="url(#clip-13)"><g clip-path="url(#clip-14)"><path fill="rgb(99.609375%, 45.878601%, 30.979919%)" d="M 159.101562 200.320312 C 158.808594 201.320312 157.757812 201.898438 156.753906 201.601562 L 134.25 194.992188 C 133.246094 194.699219 132.671875 193.648438 132.96875 192.644531 C 133.261719 191.640625 134.316406 191.066406 135.320312 191.359375 L 157.820312 197.96875 C 158.824219 198.261719 159.398438 199.3125 159.101562 200.320312 " fill-opacity="1" fill-rule="nonzero"/></g></g></g><g clip-path="url(#clip-15)"><g clip-path="url(#clip-16)"><g clip-path="url(#clip-17)"><path fill="rgb(85.488892%, 37.649536%, 28.239441%)" d="M 159.101562 200.320312 L 158.199219 200.054688 C 158.121094 200.308594 157.957031 200.5 157.742188 200.621094 C 157.523438 200.738281 157.273438 200.773438 157.019531 200.699219 L 134.515625 194.089844 C 134.261719 194.015625 134.066406 193.847656 133.949219 193.632812 C 133.832031 193.417969 133.796875 193.164062 133.871094 192.910156 C 133.945312 192.652344 134.113281 192.460938 134.328125 192.339844 C 134.542969 192.226562 134.796875 192.1875 135.054688 192.265625 L 157.554688 198.871094 C 158.058594 199.019531 158.347656 199.546875 158.199219 200.054688 L 160.003906 200.585938 C 160.226562 199.835938 160.121094 199.058594 159.773438 198.425781 C 159.429688 197.789062 158.832031 197.285156 158.085938 197.0625 L 135.582031 190.457031 C 134.835938 190.238281 134.0625 190.339844 133.425781 190.6875 C 132.792969 191.03125 132.285156 191.628906 132.066406 192.378906 C 131.84375 193.128906 131.949219 193.902344 132.296875 194.535156 C 132.640625 195.171875 133.238281 195.679688 133.984375 195.898438 L 156.488281 202.503906 C 157.234375 202.726562 158.011719 202.621094 158.644531 202.273438 C 159.277344 201.929688 159.785156 201.332031 160.003906 200.585938 L 159.101562 200.320312 " fill-opacity="1" fill-rule="nonzero"/></g></g></g><g clip-path="url(#clip-18)"><g clip-path="url(#clip-19)"><g clip-path="url(#clip-20)"><path fill="rgb(99.609375%, 45.878601%, 30.979919%)" d="M 162.148438 195.53125 C 161.851562 196.535156 160.796875 197.109375 159.796875 196.816406 L 134.277344 189.320312 C 133.277344 189.027344 132.703125 187.976562 132.996094 186.96875 C 133.292969 185.964844 134.34375 185.394531 135.34375 185.6875 L 160.863281 193.179688 C 161.867188 193.476562 162.441406 194.527344 162.148438 195.53125 " fill-opacity="1" fill-rule="nonzero"/></g></g></g><g clip-path="url(#clip-21)"><g clip-path="url(#clip-22)"><g clip-path="url(#clip-23)"><path fill="rgb(85.488892%, 37.649536%, 28.239441%)" d="M 162.148438 195.53125 L 161.242188 195.265625 C 161.167969 195.519531 161 195.714844 160.785156 195.832031 C 160.566406 195.949219 160.316406 195.984375 160.0625 195.910156 L 134.542969 188.417969 C 134.289062 188.34375 134.097656 188.175781 133.976562 187.960938 C 133.859375 187.742188 133.824219 187.488281 133.898438 187.234375 C 133.976562 186.980469 134.140625 186.789062 134.355469 186.667969 C 134.574219 186.550781 134.824219 186.515625 135.078125 186.589844 L 160.597656 194.085938 C 160.851562 194.160156 161.046875 194.324219 161.164062 194.542969 C 161.28125 194.757812 161.316406 195.007812 161.242188 195.265625 L 163.050781 195.796875 C 163.269531 195.046875 163.164062 194.269531 162.816406 193.636719 C 162.472656 193.003906 161.875 192.496094 161.128906 192.277344 L 135.609375 184.785156 C 134.863281 184.5625 134.089844 184.667969 133.457031 185.015625 C 132.820312 185.359375 132.3125 185.957031 132.09375 186.703125 C 131.871094 187.453125 131.976562 188.230469 132.324219 188.863281 C 132.667969 189.5 133.265625 190.007812 134.011719 190.226562 L 159.53125 197.71875 C 160.277344 197.9375 161.054688 197.835938 161.6875 197.488281 C 162.324219 197.140625 162.832031 196.542969 163.050781 195.796875 L 162.148438 195.53125 " fill-opacity="1" fill-rule="nonzero"/></g></g></g><g clip-path="url(#clip-24)"><g clip-path="url(#clip-25)"><g clip-path="url(#clip-26)"><path fill="rgb(99.609375%, 45.878601%, 30.979919%)" d="M 163.683594 190.300781 C 163.386719 191.304688 162.335938 191.878906 161.332031 191.585938 L 135.8125 184.09375 C 134.8125 183.796875 134.238281 182.742188 134.53125 181.738281 C 134.828125 180.738281 135.878906 180.164062 136.882812 180.457031 L 162.398438 187.953125 C 163.402344 188.246094 163.976562 189.300781 163.683594 190.300781 " fill-opacity="1" fill-rule="nonzero"/></g></g></g><g clip-path="url(#clip-27)"><g clip-path="url(#clip-28)"><g clip-path="url(#clip-29)"><path fill="rgb(85.488892%, 37.649536%, 28.239441%)" d="M 163.683594 190.300781 L 162.78125 190.035156 C 162.703125 190.289062 162.539062 190.484375 162.320312 190.601562 C 162.101562 190.722656 161.851562 190.757812 161.597656 190.683594 L 136.078125 183.1875 C 135.828125 183.113281 135.632812 182.949219 135.511719 182.730469 C 135.394531 182.511719 135.359375 182.261719 135.433594 182.003906 C 135.511719 181.753906 135.675781 181.558594 135.890625 181.441406 C 136.109375 181.320312 136.363281 181.289062 136.617188 181.363281 L 162.132812 188.855469 C 162.386719 188.929688 162.582031 189.097656 162.699219 189.3125 C 162.816406 189.527344 162.851562 189.78125 162.78125 190.035156 L 164.585938 190.566406 C 164.804688 189.816406 164.699219 189.042969 164.351562 188.40625 C 164.007812 187.773438 163.414062 187.265625 162.664062 187.046875 L 137.144531 179.554688 C 136.398438 179.332031 135.625 179.4375 134.988281 179.785156 C 134.355469 180.132812 133.847656 180.726562 133.628906 181.472656 C 133.40625 182.222656 133.511719 183 133.859375 183.632812 C 134.207031 184.269531 134.800781 184.777344 135.546875 184.996094 L 161.066406 192.488281 C 161.816406 192.710938 162.589844 192.605469 163.222656 192.257812 C 163.859375 191.910156 164.367188 191.316406 164.585938 190.566406 L 163.683594 190.300781 " fill-opacity="1" fill-rule="nonzero"/></g></g></g><g clip-path="url(#clip-30)"><g clip-path="url(#clip-31)"><g clip-path="url(#clip-32)"><path fill="rgb(99.609375%, 45.878601%, 30.979919%)" d="M 166.800781 185.535156 C 166.503906 186.539062 165.453125 187.113281 164.449219 186.820312 L 135.769531 178.398438 C 134.765625 178.101562 134.191406 177.050781 134.484375 176.046875 C 134.78125 175.042969 135.832031 174.46875 136.835938 174.765625 L 165.515625 183.1875 C 166.519531 183.480469 167.09375 184.535156 166.800781 185.535156 " fill-opacity="1" fill-rule="nonzero"/></g></g></g><g clip-path="url(#clip-33)"><g clip-path="url(#clip-34)"><g clip-path="url(#clip-35)"><path fill="rgb(85.488892%, 37.649536%, 28.239441%)" d="M 166.800781 185.535156 L 165.894531 185.269531 C 165.820312 185.523438 165.652344 185.71875 165.4375 185.835938 C 165.222656 185.953125 164.96875 185.988281 164.714844 185.917969 L 136.035156 177.496094 C 135.78125 177.417969 135.585938 177.253906 135.46875 177.035156 C 135.351562 176.820312 135.316406 176.566406 135.390625 176.3125 C 135.464844 176.058594 135.628906 175.863281 135.847656 175.746094 C 136.0625 175.628906 136.316406 175.59375 136.570312 175.667969 L 165.25 184.089844 C 165.503906 184.164062 165.699219 184.332031 165.816406 184.546875 C 165.9375 184.765625 165.96875 185.015625 165.894531 185.269531 L 167.703125 185.800781 C 167.921875 185.054688 167.816406 184.277344 167.472656 183.644531 C 167.125 183.011719 166.53125 182.5 165.78125 182.28125 L 137.101562 173.859375 C 136.351562 173.640625 135.578125 173.746094 134.945312 174.09375 C 134.308594 174.4375 133.800781 175.035156 133.582031 175.78125 C 133.363281 176.53125 133.46875 177.304688 133.8125 177.9375 C 134.160156 178.574219 134.753906 179.082031 135.503906 179.300781 L 164.183594 187.722656 C 164.933594 187.945312 165.707031 187.835938 166.339844 187.492188 C 166.976562 187.144531 167.484375 186.550781 167.703125 185.800781 L 166.800781 185.535156 " fill-opacity="1" fill-rule="nonzero"/></g></g></g></svg>