<svg id="Calque_2" data-name="Calque 2" xmlns="http://www.w3.org/2000/svg" viewBox="0 0 285.53 273.77"><defs><style>.cls-1{fill:#fff;}</style></defs><path class="cls-1" d="M131.44,13.15l-18,19s-10-15-28,4-51,51-51,51-21,14.92,0,33.46,100,101.54,100,101.54l66-64s28-31,74-1c0,0,17,14,3,27l-75,76s-30,28-61,2l16-18s16,13,28-4l67-66s-13-12-36,3l-85,84s-27,27-58,2l-61-61s-28-27,0-60l17,17s-12,18,5,30l54,54s14,13,30-4l-108-107s-21-25-3-52l61-63S92.44-13.85,131.44,13.15Z"/><path class="cls-1" d="M279.76,89.37l-73-73s-30-34-64-4L41.26,113.87l17,17,80-79,63.5,63.5s29,27,69,6C270.76,121.37,296.76,107.37,279.76,89.37Zm-65.21,3.95-59-59c17-18,28-4,28-4l71,71c-25,9-40-8-40-8Z"/></svg>