<?xml version="1.0" encoding="UTF-8"?><svg xmlns="http://www.w3.org/2000/svg" xmlns:xlink="http://www.w3.org/1999/xlink" width="375" zoomAndPan="magnify" viewBox="0 0 375 374.999991" height="374.999991" preserveAspectRatio="xMidYMid meet" version="1.0"><defs><clipPath id="clip-0"><path d="M 50.84375 121.820312 L 323.84375 121.820312 L 323.84375 253.070312 L 50.84375 253.070312 Z M 50.84375 121.820312 " clip-rule="nonzero"/></clipPath></defs><path fill="rgb(24.308777%, 97.24884%, 95.689392%)" d="M 227.746094 172.425781 C 219.390625 172.425781 212.59375 179.242188 212.59375 187.613281 C 212.59375 195.988281 219.390625 202.800781 227.746094 202.800781 C 236.097656 202.800781 242.898438 195.988281 242.898438 187.613281 C 242.898438 179.242188 236.097656 172.425781 227.746094 172.425781 Z M 227.746094 192.675781 C 224.957031 192.675781 222.695312 190.410156 222.695312 187.613281 C 222.695312 184.820312 224.957031 182.550781 227.746094 182.550781 C 230.535156 182.550781 232.796875 184.820312 232.796875 187.613281 C 232.796875 190.410156 230.535156 192.675781 227.746094 192.675781 Z M 227.746094 192.675781 " fill-opacity="1" fill-rule="nonzero"/><path fill="rgb(24.308777%, 97.24884%, 95.689392%)" d="M 258.046875 172.425781 C 266.402344 172.425781 273.199219 165.613281 273.199219 157.238281 C 273.199219 148.867188 266.402344 142.050781 258.046875 142.050781 C 249.695312 142.050781 242.898438 148.867188 242.898438 157.238281 C 242.898438 165.613281 249.695312 172.425781 258.046875 172.425781 Z M 258.046875 152.175781 C 260.835938 152.175781 263.097656 154.449219 263.097656 157.238281 C 263.097656 160.027344 260.835938 162.300781 258.046875 162.300781 C 255.261719 162.300781 252.996094 160.027344 252.996094 157.238281 C 252.996094 154.449219 255.261719 152.175781 258.046875 152.175781 Z M 258.046875 152.175781 " fill-opacity="1" fill-rule="nonzero"/><g clip-path="url(#clip-0)"><path fill="rgb(24.308777%, 97.24884%, 95.689392%)" d="M 258.046875 121.800781 L 192.390625 121.800781 L 192.390625 86.363281 C 192.390625 72.40625 203.71875 61.050781 217.644531 61.050781 C 231.570312 61.050781 242.898438 72.40625 242.898438 86.363281 C 242.898438 94.738281 249.695312 101.550781 258.046875 101.550781 C 266.402344 101.550781 273.199219 94.738281 273.199219 86.363281 L 273.199219 66.113281 C 273.199219 63.320312 270.941406 61.050781 268.148438 61.050781 C 265.355469 61.050781 263.097656 63.320312 263.097656 66.113281 L 263.097656 86.363281 C 263.097656 89.152344 260.835938 91.425781 258.046875 91.425781 C 255.261719 91.425781 252.996094 89.152344 252.996094 86.363281 C 252.996094 66.824219 237.132812 50.925781 217.644531 50.925781 C 198.15625 50.925781 182.292969 66.824219 182.292969 86.363281 L 182.292969 121.800781 L 116.636719 121.800781 C 80.433594 121.800781 50.980469 151.328125 50.980469 187.613281 C 50.980469 223.902344 80.433594 253.425781 116.636719 253.425781 C 143.152344 253.425781 167.042969 237.292969 177.1875 212.925781 L 197.503906 212.925781 C 207.644531 237.292969 231.535156 253.425781 258.046875 253.425781 C 294.25 253.425781 323.703125 223.902344 323.703125 187.613281 C 323.703125 151.328125 294.25 121.800781 258.046875 121.800781 Z M 258.046875 243.300781 C 234.59375 243.300781 213.570312 228.382812 205.726562 206.171875 C 205.007812 204.152344 203.105469 202.800781 200.964844 202.800781 L 173.714844 202.800781 C 171.574219 202.800781 169.671875 204.152344 168.953125 206.171875 C 161.117188 228.382812 140.085938 243.300781 116.636719 243.300781 C 86.003906 243.300781 61.082031 218.320312 61.082031 187.613281 C 61.082031 156.910156 86.003906 131.925781 116.636719 131.925781 L 258.046875 131.925781 C 288.679688 131.925781 313.601562 156.910156 313.601562 187.613281 C 313.601562 218.320312 288.679688 243.300781 258.046875 243.300781 Z M 258.046875 243.300781 " fill-opacity="1" fill-rule="nonzero"/></g><path fill="rgb(24.308777%, 97.24884%, 95.689392%)" d="M 288.351562 172.425781 C 279.996094 172.425781 273.199219 179.242188 273.199219 187.613281 C 273.199219 195.988281 279.996094 202.800781 288.351562 202.800781 C 296.703125 202.800781 303.5 195.988281 303.5 187.613281 C 303.5 179.242188 296.703125 172.425781 288.351562 172.425781 Z M 288.351562 192.675781 C 285.5625 192.675781 283.300781 190.410156 283.300781 187.613281 C 283.300781 184.820312 285.5625 182.550781 288.351562 182.550781 C 291.136719 182.550781 293.402344 184.820312 293.402344 187.613281 C 293.402344 190.410156 291.136719 192.675781 288.351562 192.675781 Z M 288.351562 192.675781 " fill-opacity="1" fill-rule="nonzero"/><path fill="rgb(24.308777%, 97.24884%, 95.689392%)" d="M 258.046875 202.800781 C 249.695312 202.800781 242.898438 209.617188 242.898438 217.988281 C 242.898438 226.363281 249.695312 233.175781 258.046875 233.175781 C 266.402344 233.175781 273.199219 226.363281 273.199219 217.988281 C 273.199219 209.617188 266.402344 202.800781 258.046875 202.800781 Z M 258.046875 223.050781 C 255.261719 223.050781 252.996094 220.785156 252.996094 217.988281 C 252.996094 215.195312 255.261719 212.925781 258.046875 212.925781 C 260.835938 212.925781 263.097656 215.195312 263.097656 217.988281 C 263.097656 220.785156 260.835938 223.050781 258.046875 223.050781 Z M 258.046875 223.050781 " fill-opacity="1" fill-rule="nonzero"/><path fill="rgb(24.308777%, 97.24884%, 95.689392%)" d="M 146.9375 172.425781 L 131.789062 172.425781 L 131.789062 157.238281 C 131.789062 154.445312 129.523438 152.175781 126.738281 152.175781 L 106.535156 152.175781 C 103.746094 152.175781 101.484375 154.445312 101.484375 157.238281 L 101.484375 172.425781 L 86.332031 172.425781 C 83.546875 172.425781 81.285156 174.691406 81.285156 177.488281 L 81.285156 197.738281 C 81.285156 200.539062 83.546875 202.800781 86.332031 202.800781 L 101.484375 202.800781 L 101.484375 217.988281 C 101.484375 220.789062 103.746094 223.050781 106.535156 223.050781 L 126.738281 223.050781 C 129.523438 223.050781 131.789062 220.789062 131.789062 217.988281 L 131.789062 202.800781 L 146.9375 202.800781 C 149.726562 202.800781 151.988281 200.539062 151.988281 197.738281 L 151.988281 177.488281 C 151.988281 174.691406 149.726562 172.425781 146.9375 172.425781 Z M 141.886719 192.675781 L 126.738281 192.675781 C 123.949219 192.675781 121.6875 194.941406 121.6875 197.738281 L 121.6875 212.925781 L 111.585938 212.925781 L 111.585938 197.738281 C 111.585938 194.941406 109.324219 192.675781 106.535156 192.675781 L 91.382812 192.675781 L 91.382812 182.550781 L 106.535156 182.550781 C 109.324219 182.550781 111.585938 180.289062 111.585938 177.488281 L 111.585938 162.300781 L 121.6875 162.300781 L 121.6875 177.488281 C 121.6875 180.289062 123.949219 182.550781 126.738281 182.550781 L 141.886719 182.550781 Z M 141.886719 192.675781 " fill-opacity="1" fill-rule="nonzero"/></svg>