<?xml version="1.0" encoding="UTF-8"?><svg xmlns="http://www.w3.org/2000/svg" xmlns:xlink="http://www.w3.org/1999/xlink" width="375" zoomAndPan="magnify" viewBox="0 0 375 374.999991" height="374.999991" preserveAspectRatio="xMidYMid meet" version="1.0"><defs><clipPath id="clip-0"><path d="M 56 76 L 318 76 L 318 299.785156 L 56 299.785156 Z M 56 76 " clip-rule="nonzero"/></clipPath></defs><g clip-path="url(#clip-0)"><path fill="rgb(100%, 61.959839%, 17.248535%)" d="M 182.257812 96.699219 L 182.257812 275.820312 L 80.9375 255.535156 C 78.273438 254.980469 76.164062 252.410156 76.164062 249.792969 L 76.164062 108.53125 L 66.519531 108.53125 L 66.519531 265.953125 L 182.257812 289.214844 L 187.082031 290.019531 L 191.902344 289.164062 L 307.640625 265.953125 L 307.640625 108.53125 L 297.996094 108.53125 L 297.996094 249.792969 C 297.996094 252.410156 295.886719 254.980469 293.226562 255.535156 L 191.902344 275.820312 L 191.902344 96.699219 L 292.320312 76.5625 C 295.433594 75.957031 297.996094 77.972656 297.996094 81.195312 L 297.996094 98.863281 L 312.515625 98.863281 C 315.125 98.863281 317.285156 101.078125 317.285156 103.699219 L 317.285156 269.023438 C 317.285156 271.695312 315.226562 274.3125 312.464844 274.863281 L 188.890625 299.632812 C 187.882812 299.835938 186.226562 299.835938 185.222656 299.632812 L 61.644531 274.863281 C 59.035156 274.3125 56.875 271.695312 56.875 269.023438 L 56.875 103.699219 C 56.875 101.027344 58.933594 98.863281 61.644531 98.863281 L 76.164062 98.863281 L 76.164062 81.195312 C 76.164062 78.023438 78.675781 75.957031 81.839844 76.5625 Z M 182.257812 96.699219 " fill-opacity="1" fill-rule="evenodd"/></g></svg>