<?xml version="1.0" encoding="UTF-8"?><svg xmlns="http://www.w3.org/2000/svg" xmlns:xlink="http://www.w3.org/1999/xlink" width="375" zoomAndPan="magnify" viewBox="0 0 375 374.999991" height="374.999991" preserveAspectRatio="xMidYMid meet" version="1.0"><defs><clipPath id="clip-0"><path d="M 67.828125 102.683594 L 307.078125 102.683594 L 307.078125 272.183594 L 67.828125 272.183594 Z M 67.828125 102.683594 " clip-rule="nonzero"/></clipPath></defs><g clip-path="url(#clip-0)"><path fill="rgb(96.078491%, 30.589294%, 63.529968%)" d="M 267.203125 252.203125 C 278.21875 252.203125 287.042969 243.285156 287.042969 232.273438 L 287.140625 122.664062 C 287.140625 111.652344 278.21875 102.734375 267.203125 102.734375 L 107.703125 102.734375 C 96.6875 102.734375 87.765625 111.652344 87.765625 122.664062 L 87.765625 232.273438 C 87.765625 243.285156 96.6875 252.203125 107.703125 252.203125 L 67.828125 252.203125 C 67.828125 263.214844 76.75 272.132812 87.765625 272.132812 L 287.140625 272.132812 C 298.15625 272.132812 307.078125 263.214844 307.078125 252.203125 Z M 107.703125 122.664062 L 267.203125 122.664062 L 267.203125 232.273438 L 107.703125 232.273438 Z M 187.453125 262.167969 C 181.972656 262.167969 177.484375 257.683594 177.484375 252.203125 C 177.484375 246.722656 181.972656 242.238281 187.453125 242.238281 C 192.9375 242.238281 197.421875 246.722656 197.421875 252.203125 C 197.421875 257.683594 192.9375 262.167969 187.453125 262.167969 Z M 187.453125 262.167969 " fill-opacity="1" fill-rule="nonzero"/></g></svg>