<?xml version="1.0" encoding="UTF-8"?><svg xmlns="http://www.w3.org/2000/svg" xmlns:xlink="http://www.w3.org/1999/xlink" width="375" zoomAndPan="magnify" viewBox="0 0 375 374.999991" height="374.999991" preserveAspectRatio="xMidYMid meet" version="1.0"><path fill="rgb(99.609375%, 45.878601%, 30.979919%)" d="M 190.90625 91.175781 L 220.097656 150.269531 C 220.539062 151.304688 221.578125 152.042969 222.761719 152.191406 L 288.105469 161.644531 C 290.917969 162.089844 292.105469 165.636719 290.03125 167.554688 L 242.765625 213.5 C 241.875 214.242188 241.578125 215.421875 241.726562 216.605469 L 252.839844 281.609375 C 253.285156 284.414062 250.320312 286.632812 247.804688 285.300781 L 189.277344 254.574219 C 188.238281 253.980469 187.054688 253.980469 186.015625 254.574219 L 127.492188 285.300781 C 124.972656 286.632812 122.007812 284.414062 122.453125 281.609375 L 133.566406 216.605469 C 133.714844 215.421875 133.417969 214.386719 132.527344 213.5 L 85.414062 167.554688 C 83.335938 165.488281 84.523438 162.089844 87.339844 161.644531 L 152.679688 152.191406 C 153.867188 152.042969 154.753906 151.304688 155.347656 150.269531 L 184.535156 91.175781 C 185.871094 88.664062 189.574219 88.664062 190.90625 91.175781 Z M 190.90625 91.175781 " fill-opacity="1" fill-rule="nonzero"/></svg>