<?xml version="1.0" encoding="UTF-8"?><svg xmlns="http://www.w3.org/2000/svg" xmlns:xlink="http://www.w3.org/1999/xlink" width="375" zoomAndPan="magnify" viewBox="0 0 375 374.999991" height="374.999991" preserveAspectRatio="xMidYMid meet" version="1.0"><defs><clipPath id="clip-0"><path d="M 28.660156 32.386719 L 199 32.386719 L 199 203 L 28.660156 203 Z M 28.660156 32.386719 " clip-rule="nonzero"/></clipPath><clipPath id="clip-1"><path d="M 177 143 L 263 143 L 263 228.136719 L 177 228.136719 Z M 177 143 " clip-rule="nonzero"/></clipPath><clipPath id="clip-2"><path d="M 203 79 L 267.910156 79 L 267.910156 144 L 203 144 Z M 203 79 " clip-rule="nonzero"/></clipPath></defs><g clip-path="url(#clip-0)"><path fill="rgb(100%, 61.959839%, 17.248535%)" d="M 107.976562 161.128906 C 83.988281 157.96875 67.109375 135.972656 70.273438 111.984375 C 73.433594 88.003906 95.441406 71.128906 119.417969 74.289062 C 143.394531 77.449219 160.28125 99.457031 157.121094 123.433594 C 153.960938 147.414062 131.953125 164.289062 107.976562 161.128906 Z M 197.777344 128.890625 L 198.492188 115.660156 C 198.726562 111.425781 195.46875 107.800781 191.234375 107.570312 L 183.082031 107.136719 C 182.039062 100.257812 179.984375 93.664062 177.054688 87.53125 L 183.574219 82.570312 C 186.957031 80 187.609375 75.183594 185.039062 71.800781 L 177.035156 61.257812 C 174.464844 57.875 169.636719 57.222656 166.257812 59.792969 L 159.734375 64.742188 C 153.140625 59 145.417969 54.441406 136.875 51.457031 L 137.9375 43.355469 C 138.496094 39.152344 135.535156 35.289062 131.320312 34.738281 L 118.195312 33.011719 C 113.992188 32.453125 110.125 35.414062 109.566406 39.617188 L 108.503906 47.71875 C 98.117188 48.476562 88.253906 51.53125 79.480469 56.441406 L 74.128906 50.277344 C 71.347656 47.066406 66.488281 46.71875 63.285156 49.507812 L 53.289062 58.191406 C 50.078125 60.960938 49.738281 65.816406 52.519531 69.03125 L 57.863281 75.183594 C 52.394531 82.347656 48.253906 90.640625 45.851562 99.742188 L 37.699219 99.296875 C 33.453125 99.078125 29.839844 102.320312 29.609375 106.566406 L 28.898438 119.789062 C 28.667969 124.023438 31.914062 127.648438 36.160156 127.878906 L 44.3125 128.3125 C 45.367188 135.179688 47.421875 141.777344 50.351562 147.898438 L 43.859375 152.839844 C 40.46875 155.410156 39.816406 160.234375 42.386719 163.605469 L 50.402344 174.152344 C 52.960938 177.53125 57.789062 178.1875 61.167969 175.613281 L 67.667969 170.675781 C 74.273438 176.4375 81.996094 180.988281 90.550781 183.96875 L 89.488281 192.058594 C 88.929688 196.273438 91.890625 200.128906 96.105469 200.6875 L 109.230469 202.417969 C 113.433594 202.976562 117.300781 200.003906 117.847656 195.800781 L 118.921875 187.699219 C 129.300781 186.929688 139.160156 183.875 147.9375 178.964844 L 153.296875 185.148438 C 156.078125 188.351562 160.9375 188.699219 164.148438 185.917969 L 174.148438 177.238281 C 177.347656 174.457031 177.6875 169.597656 174.90625 166.386719 L 169.542969 160.210938 C 175 153.058594 179.128906 144.789062 181.53125 135.707031 L 189.695312 136.152344 C 193.933594 136.371094 197.554688 133.125 197.777344 128.890625 " fill-opacity="1" fill-rule="nonzero"/></g><g clip-path="url(#clip-1)"><path fill="rgb(100%, 61.959839%, 17.248535%)" d="M 219.902344 207.683594 C 207.773438 207.683594 197.957031 197.863281 197.957031 185.75 C 197.957031 173.632812 207.773438 163.804688 219.902344 163.804688 C 232.015625 163.804688 241.84375 173.632812 241.84375 185.75 C 241.84375 197.863281 232.015625 207.683594 219.902344 207.683594 Z M 262.386719 185.792969 L 261.882812 179.175781 C 261.714844 177.058594 259.859375 175.476562 257.742188 175.636719 L 253.664062 175.953125 C 252.695312 172.601562 251.242188 169.460938 249.386719 166.617188 L 252.304688 163.722656 C 253.8125 162.226562 253.824219 159.78125 252.328125 158.273438 L 247.660156 153.566406 C 246.164062 152.058594 243.71875 152.039062 242.214844 153.542969 L 239.296875 156.429688 C 235.640625 154.007812 231.511719 152.25 227.074219 151.332031 L 227.074219 147.234375 C 227.074219 145.105469 225.347656 143.378906 223.21875 143.378906 L 216.59375 143.378906 C 214.464844 143.378906 212.738281 145.105469 212.738281 147.234375 L 212.738281 151.320312 C 207.628906 152.375 202.929688 154.542969 198.894531 157.558594 L 195.828125 154.839844 C 194.238281 153.429688 191.804688 153.574219 190.390625 155.167969 L 186 160.140625 C 184.585938 161.730469 184.734375 164.164062 186.324219 165.574219 L 189.378906 168.28125 C 187.136719 172.191406 185.621094 176.585938 185.03125 181.261719 L 180.941406 181.578125 C 178.824219 181.734375 177.246094 183.589844 177.402344 185.707031 L 177.917969 192.335938 C 178.078125 194.453125 179.929688 196.03125 182.046875 195.875 L 186.136719 195.546875 C 187.105469 198.898438 188.558594 202.039062 190.414062 204.890625 L 187.503906 207.757812 C 186 209.265625 185.988281 211.699219 187.484375 213.214844 L 192.152344 217.925781 C 193.648438 219.429688 196.089844 219.441406 197.597656 217.945312 L 200.503906 215.070312 C 204.160156 217.492188 208.300781 219.25 212.738281 220.167969 L 212.738281 224.253906 C 212.738281 226.382812 214.464844 228.113281 216.59375 228.113281 L 223.21875 228.113281 C 225.347656 228.113281 227.074219 226.382812 227.074219 224.253906 L 227.074219 220.167969 C 232.171875 219.105469 236.871094 216.945312 240.90625 213.929688 L 243.984375 216.648438 C 245.574219 218.0625 248.007812 217.914062 249.417969 216.324219 L 253.8125 211.351562 C 255.222656 209.757812 255.078125 207.324219 253.484375 205.914062 L 250.421875 203.207031 C 252.652344 199.296875 254.171875 194.914062 254.761719 190.25 L 258.847656 189.933594 C 260.964844 189.765625 262.558594 187.910156 262.386719 185.792969 " fill-opacity="1" fill-rule="nonzero"/></g><g clip-path="url(#clip-2)"><path fill="rgb(100%, 61.959839%, 17.248535%)" d="M 235.511719 126.132812 C 227.273438 126.132812 220.597656 119.453125 220.597656 111.214844 C 220.597656 102.976562 227.273438 96.296875 235.511719 96.296875 C 243.75 96.296875 250.441406 102.976562 250.441406 111.214844 C 250.441406 119.453125 243.75 126.132812 235.511719 126.132812 Z M 267.78125 111.246094 L 267.390625 106.230469 C 267.265625 104.617188 265.863281 103.417969 264.253906 103.535156 L 261.15625 103.777344 C 260.417969 101.238281 259.324219 98.855469 257.910156 96.6875 L 260.125 94.484375 C 261.273438 93.355469 261.273438 91.503906 260.144531 90.355469 L 256.59375 86.773438 C 255.457031 85.625 253.601562 85.625 252.453125 86.761719 L 250.25 88.953125 C 247.46875 87.109375 244.332031 85.78125 240.960938 85.078125 L 240.960938 81.96875 C 240.960938 80.355469 239.652344 79.039062 238.042969 79.039062 L 233.007812 79.039062 C 231.382812 79.039062 230.078125 80.355469 230.078125 81.96875 L 230.078125 85.078125 C 226.199219 85.875 222.628906 87.519531 219.5625 89.804688 L 217.246094 87.753906 C 216.035156 86.675781 214.191406 86.792969 213.117188 87.996094 L 209.777344 91.765625 C 208.703125 92.976562 208.816406 94.820312 210.019531 95.894531 L 212.347656 97.949219 C 210.640625 100.929688 209.492188 104.261719 209.039062 107.8125 L 205.941406 108.054688 C 204.328125 108.179688 203.128906 109.582031 203.246094 111.191406 L 203.632812 116.21875 C 203.761719 117.820312 205.171875 119.03125 206.773438 118.90625 L 209.882812 118.664062 C 210.609375 121.203125 211.714844 123.582031 213.125 125.753906 L 210.925781 127.933594 C 209.777344 129.070312 209.765625 130.925781 210.902344 132.0625 L 214.453125 135.644531 C 215.582031 136.792969 217.433594 136.804688 218.582031 135.664062 L 220.785156 133.472656 C 223.566406 135.316406 226.707031 136.65625 230.078125 137.351562 L 230.078125 140.460938 C 230.078125 142.070312 231.382812 143.378906 233.007812 143.378906 L 238.042969 143.378906 C 239.652344 143.378906 240.960938 142.070312 240.960938 140.460938 L 240.960938 137.351562 C 244.835938 136.539062 248.410156 134.898438 251.472656 132.621094 L 253.800781 134.675781 C 255.011719 135.75 256.855469 135.632812 257.933594 134.433594 L 261.273438 130.660156 C 262.335938 129.449219 262.230469 127.597656 261.019531 126.53125 L 258.691406 124.46875 C 260.386719 121.496094 261.535156 118.175781 261.988281 114.636719 L 265.097656 114.394531 C 266.695312 114.269531 267.910156 112.867188 267.78125 111.246094 " fill-opacity="1" fill-rule="nonzero"/></g></svg>