<?xml version="1.0" encoding="UTF-8"?><svg xmlns="http://www.w3.org/2000/svg" xmlns:xlink="http://www.w3.org/1999/xlink" width="375" zoomAndPan="magnify" viewBox="0 0 375 374.999991" height="374.999991" preserveAspectRatio="xMidYMid meet" version="1.0"><defs><clipPath id="clip-0"><path d="M 41 127 L 326 127 L 326 356 L 41 356 Z M 41 127 " clip-rule="nonzero"/></clipPath><clipPath id="clip-1"><path d="M 27.515625 170.234375 L 267.753906 91.695312 L 332.777344 290.585938 L 92.539062 369.125 Z M 27.515625 170.234375 " clip-rule="nonzero"/></clipPath><clipPath id="clip-2"><path d="M 27.515625 170.234375 L 267.753906 91.695312 L 332.777344 290.585938 L 92.539062 369.125 Z M 27.515625 170.234375 " clip-rule="nonzero"/></clipPath><clipPath id="clip-3"><path d="M 38 124 L 329 124 L 329 358 L 38 358 Z M 38 124 " clip-rule="nonzero"/></clipPath><clipPath id="clip-4"><path d="M 27.515625 170.234375 L 267.753906 91.695312 L 332.777344 290.585938 L 92.539062 369.125 Z M 27.515625 170.234375 " clip-rule="nonzero"/></clipPath><clipPath id="clip-5"><path d="M 27.515625 170.234375 L 267.753906 91.695312 L 332.777344 290.585938 L 92.539062 369.125 Z M 27.515625 170.234375 " clip-rule="nonzero"/></clipPath><clipPath id="clip-6"><path d="M 53 125 L 308 125 L 308 340 L 53 340 Z M 53 125 " clip-rule="nonzero"/></clipPath><clipPath id="clip-7"><path d="M 27.515625 170.234375 L 267.753906 91.695312 L 332.777344 290.585938 L 92.539062 369.125 Z M 27.515625 170.234375 " clip-rule="nonzero"/></clipPath><clipPath id="clip-8"><path d="M 27.515625 170.234375 L 267.753906 91.695312 L 332.777344 290.585938 L 92.539062 369.125 Z M 27.515625 170.234375 " clip-rule="nonzero"/></clipPath><clipPath id="clip-9"><path d="M 51 123 L 311 123 L 311 343 L 51 343 Z M 51 123 " clip-rule="nonzero"/></clipPath><clipPath id="clip-10"><path d="M 27.515625 170.234375 L 267.753906 91.695312 L 332.777344 290.585938 L 92.539062 369.125 Z M 27.515625 170.234375 " clip-rule="nonzero"/></clipPath><clipPath id="clip-11"><path d="M 27.515625 170.234375 L 267.753906 91.695312 L 332.777344 290.585938 L 92.539062 369.125 Z M 27.515625 170.234375 " clip-rule="nonzero"/></clipPath><clipPath id="clip-12"><path d="M 57 158 L 206 158 L 206 331 L 57 331 Z M 57 158 " clip-rule="nonzero"/></clipPath><clipPath id="clip-13"><path d="M 27.515625 170.234375 L 267.753906 91.695312 L 332.777344 290.585938 L 92.539062 369.125 Z M 27.515625 170.234375 " clip-rule="nonzero"/></clipPath><clipPath id="clip-14"><path d="M 27.515625 170.234375 L 267.753906 91.695312 L 332.777344 290.585938 L 92.539062 369.125 Z M 27.515625 170.234375 " clip-rule="nonzero"/></clipPath><clipPath id="clip-15"><path d="M 55 156 L 208 156 L 208 333 L 55 333 Z M 55 156 " clip-rule="nonzero"/></clipPath><clipPath id="clip-16"><path d="M 27.515625 170.234375 L 267.753906 91.695312 L 332.777344 290.585938 L 92.539062 369.125 Z M 27.515625 170.234375 " clip-rule="nonzero"/></clipPath><clipPath id="clip-17"><path d="M 27.515625 170.234375 L 267.753906 91.695312 L 332.777344 290.585938 L 92.539062 369.125 Z M 27.515625 170.234375 " clip-rule="nonzero"/></clipPath><clipPath id="clip-18"><path d="M 155 110 L 295 110 L 295 311 L 155 311 Z M 155 110 " clip-rule="nonzero"/></clipPath><clipPath id="clip-19"><path d="M 27.515625 170.234375 L 267.753906 91.695312 L 332.777344 290.585938 L 92.539062 369.125 Z M 27.515625 170.234375 " clip-rule="nonzero"/></clipPath><clipPath id="clip-20"><path d="M 27.515625 170.234375 L 267.753906 91.695312 L 332.777344 290.585938 L 92.539062 369.125 Z M 27.515625 170.234375 " clip-rule="nonzero"/></clipPath><clipPath id="clip-21"><path d="M 153 108 L 297 108 L 297 313 L 153 313 Z M 153 108 " clip-rule="nonzero"/></clipPath><clipPath id="clip-22"><path d="M 27.515625 170.234375 L 267.753906 91.695312 L 332.777344 290.585938 L 92.539062 369.125 Z M 27.515625 170.234375 " clip-rule="nonzero"/></clipPath><clipPath id="clip-23"><path d="M 27.515625 170.234375 L 267.753906 91.695312 L 332.777344 290.585938 L 92.539062 369.125 Z M 27.515625 170.234375 " clip-rule="nonzero"/></clipPath><clipPath id="clip-24"><path d="M 69 155 L 206 155 L 206 322 L 69 322 Z M 69 155 " clip-rule="nonzero"/></clipPath><clipPath id="clip-25"><path d="M 27.515625 170.234375 L 267.753906 91.695312 L 332.777344 290.585938 L 92.539062 369.125 Z M 27.515625 170.234375 " clip-rule="nonzero"/></clipPath><clipPath id="clip-26"><path d="M 27.515625 170.234375 L 267.753906 91.695312 L 332.777344 290.585938 L 92.539062 369.125 Z M 27.515625 170.234375 " clip-rule="nonzero"/></clipPath><clipPath id="clip-27"><path d="M 67 152 L 208 152 L 208 325 L 67 325 Z M 67 152 " clip-rule="nonzero"/></clipPath><clipPath id="clip-28"><path d="M 27.515625 170.234375 L 267.753906 91.695312 L 332.777344 290.585938 L 92.539062 369.125 Z M 27.515625 170.234375 " clip-rule="nonzero"/></clipPath><clipPath id="clip-29"><path d="M 27.515625 170.234375 L 267.753906 91.695312 L 332.777344 290.585938 L 92.539062 369.125 Z M 27.515625 170.234375 " clip-rule="nonzero"/></clipPath><clipPath id="clip-30"><path d="M 154 108 L 279 108 L 279 311 L 154 311 Z M 154 108 " clip-rule="nonzero"/></clipPath><clipPath id="clip-31"><path d="M 27.515625 170.234375 L 267.753906 91.695312 L 332.777344 290.585938 L 92.539062 369.125 Z M 27.515625 170.234375 " clip-rule="nonzero"/></clipPath><clipPath id="clip-32"><path d="M 27.515625 170.234375 L 267.753906 91.695312 L 332.777344 290.585938 L 92.539062 369.125 Z M 27.515625 170.234375 " clip-rule="nonzero"/></clipPath><clipPath id="clip-33"><path d="M 152 105 L 282 105 L 282 313 L 152 313 Z M 152 105 " clip-rule="nonzero"/></clipPath><clipPath id="clip-34"><path d="M 27.515625 170.234375 L 267.753906 91.695312 L 332.777344 290.585938 L 92.539062 369.125 Z M 27.515625 170.234375 " clip-rule="nonzero"/></clipPath><clipPath id="clip-35"><path d="M 27.515625 170.234375 L 267.753906 91.695312 L 332.777344 290.585938 L 92.539062 369.125 Z M 27.515625 170.234375 " clip-rule="nonzero"/></clipPath></defs><g clip-path="url(#clip-0)"><g clip-path="url(#clip-1)"><g clip-path="url(#clip-2)"><path fill="rgb(100%, 61.959839%, 17.248535%)" d="M 276.496094 127.09375 L 197.175781 153.027344 L 158.851562 165.554688 L 73.917969 193.320312 L 41.371094 203.960938 L 90.792969 355.132812 L 191.050781 322.359375 C 194.167969 328.105469 202.492188 330.59375 210.71875 327.902344 C 218.949219 325.214844 224.195312 318.289062 223.316406 311.808594 L 325.917969 278.265625 Z M 276.496094 127.09375 " fill-opacity="1" fill-rule="nonzero"/></g></g></g><g clip-path="url(#clip-3)"><g clip-path="url(#clip-4)"><g clip-path="url(#clip-5)"><path fill="rgb(84.309387%, 49.01886%, 7.839966%)" d="M 211.476562 330.214844 C 202.984375 332.992188 194.347656 330.894531 190.039062 325.246094 L 91.550781 357.445312 C 90.277344 357.863281 88.90625 357.167969 88.488281 355.890625 L 39.066406 204.714844 C 38.648438 203.4375 39.34375 202.066406 40.617188 201.648438 L 275.742188 124.78125 C 277.015625 124.367188 278.382812 125.0625 278.800781 126.339844 L 328.222656 277.515625 C 328.640625 278.789062 327.949219 280.164062 326.675781 280.578125 L 225.835938 313.546875 C 225.699219 320.644531 219.96875 327.441406 211.476562 330.214844 Z M 92.34375 352.070312 L 190.292969 320.046875 C 191.40625 319.683594 192.621094 320.167969 193.179688 321.199219 C 195.777344 325.984375 202.992188 327.871094 209.964844 325.59375 C 216.9375 323.3125 221.644531 317.527344 220.910156 312.132812 C 220.753906 310.972656 221.449219 309.863281 222.558594 309.5 L 322.859375 276.710938 L 274.949219 130.160156 L 44.433594 205.519531 Z M 92.34375 352.070312 " fill-opacity="1" fill-rule="nonzero"/></g></g></g><g clip-path="url(#clip-6)"><g clip-path="url(#clip-7)"><g clip-path="url(#clip-8)"><path fill="rgb(100%, 61.959839%, 17.248535%)" d="M 211.953125 303.703125 L 307.613281 272.429688 L 259.558594 125.449219 L 188.703125 148.613281 L 156.730469 159.066406 L 85.871094 182.230469 L 53.902344 192.683594 L 101.953125 339.664062 L 195.457031 309.097656 C 195.457031 309.097656 207.351562 316.863281 211.953125 303.703125 Z M 211.953125 303.703125 " fill-opacity="1" fill-rule="nonzero"/></g></g></g><g clip-path="url(#clip-9)"><g clip-path="url(#clip-10)"><g clip-path="url(#clip-11)"><path fill="rgb(84.309387%, 49.01886%, 7.839966%)" d="M 206.386719 313.261719 C 201.847656 314.746094 197.222656 312.804688 195.191406 311.742188 L 102.707031 341.976562 C 101.433594 342.390625 100.066406 341.695312 99.648438 340.417969 L 51.59375 193.4375 C 51.179688 192.160156 51.871094 190.789062 53.144531 190.371094 L 258.804688 123.136719 C 260.078125 122.71875 261.445312 123.417969 261.863281 124.695312 L 309.917969 271.675781 C 310.332031 272.953125 309.640625 274.324219 308.367188 274.742188 L 213.804688 305.65625 C 212.164062 309.632812 209.671875 312.1875 206.386719 313.261719 Z M 103.5 336.601562 L 194.699219 306.785156 C 195.398438 306.558594 196.160156 306.660156 196.777344 307.058594 C 196.8125 307.085938 201.175781 309.847656 204.875 308.640625 C 206.957031 307.957031 208.570312 306.027344 209.664062 302.898438 C 209.914062 302.183594 210.480469 301.628906 211.195312 301.394531 L 304.550781 270.875 L 258.011719 128.515625 L 56.960938 194.242188 Z M 103.5 336.601562 " fill-opacity="1" fill-rule="nonzero"/></g></g></g><g clip-path="url(#clip-12)"><g clip-path="url(#clip-13)"><g clip-path="url(#clip-14)"><path fill="rgb(100%, 61.959839%, 17.248535%)" d="M 205.316406 310.308594 L 110.097656 330.449219 L 57.964844 170.980469 L 155.816406 158.898438 Z M 205.316406 310.308594 " fill-opacity="1" fill-rule="nonzero"/></g></g></g><g clip-path="url(#clip-15)"><g clip-path="url(#clip-16)"><g clip-path="url(#clip-17)"><path fill="rgb(84.309387%, 49.01886%, 7.839966%)" d="M 206.070312 312.617188 C 205.988281 312.644531 205.90625 312.667969 205.820312 312.6875 L 110.601562 332.828125 C 109.390625 333.082031 108.179688 332.382812 107.792969 331.199219 L 55.660156 171.734375 C 55.433594 171.046875 55.527344 170.289062 55.914062 169.675781 C 56.300781 169.0625 56.941406 168.65625 57.664062 168.570312 L 155.515625 156.484375 C 156.664062 156.34375 157.757812 157.039062 158.117188 158.144531 L 207.617188 309.554688 C 207.832031 310.210938 207.757812 310.925781 207.417969 311.523438 C 207.117188 312.046875 206.636719 312.433594 206.070312 312.617188 Z M 111.722656 327.617188 L 202.167969 308.488281 L 154.132812 161.554688 L 61.1875 173.035156 Z M 111.722656 327.617188 " fill-opacity="1" fill-rule="nonzero"/></g></g></g><g clip-path="url(#clip-18)"><g clip-path="url(#clip-19)"><g clip-path="url(#clip-20)"><path fill="rgb(100%, 61.959839%, 17.248535%)" d="M 205.316406 310.308594 L 294.042969 270.3125 L 241.910156 110.847656 L 155.816406 158.898438 Z M 205.316406 310.308594 " fill-opacity="1" fill-rule="nonzero"/></g></g></g><g clip-path="url(#clip-21)"><g clip-path="url(#clip-22)"><g clip-path="url(#clip-23)"><path fill="rgb(84.309387%, 49.01886%, 7.839966%)" d="M 206.070312 312.617188 C 205.503906 312.804688 204.886719 312.773438 204.335938 312.53125 C 203.707031 312.25 203.222656 311.71875 203.011719 311.0625 L 153.511719 159.648438 C 153.148438 158.542969 153.621094 157.335938 154.632812 156.773438 L 240.726562 108.71875 C 241.359375 108.367188 242.113281 108.316406 242.789062 108.582031 C 243.464844 108.847656 243.984375 109.402344 244.210938 110.09375 L 296.34375 269.558594 C 296.730469 270.738281 296.167969 272.019531 295.039062 272.527344 L 206.3125 312.523438 C 206.234375 312.5625 206.152344 312.59375 206.070312 312.617188 Z M 158.742188 160.046875 L 206.777344 306.980469 L 291.058594 268.988281 L 240.519531 114.40625 Z M 158.742188 160.046875 " fill-opacity="1" fill-rule="nonzero"/></g></g></g><g clip-path="url(#clip-24)"><g clip-path="url(#clip-25)"><g clip-path="url(#clip-26)"><path fill="rgb(100%, 61.959839%, 17.248535%)" d="M 205.535156 310.976562 L 122.597656 321.785156 L 69.660156 159.867188 L 154.640625 155.308594 Z M 205.535156 310.976562 " fill-opacity="1" fill-rule="nonzero"/></g></g></g><g clip-path="url(#clip-27)"><g clip-path="url(#clip-28)"><g clip-path="url(#clip-29)"><path fill="rgb(84.309387%, 49.01886%, 7.839966%)" d="M 206.289062 313.289062 C 206.148438 313.332031 206 313.367188 205.851562 313.386719 L 122.914062 324.195312 C 121.757812 324.347656 120.65625 323.648438 120.292969 322.539062 L 67.359375 160.621094 C 67.121094 159.902344 67.234375 159.117188 67.660156 158.492188 C 68.085938 157.871094 68.777344 157.480469 69.527344 157.441406 L 154.507812 152.878906 C 155.605469 152.820312 156.605469 153.507812 156.949219 154.554688 L 207.839844 310.222656 C 208.0625 310.910156 207.972656 311.660156 207.585938 312.273438 C 207.285156 312.757812 206.820312 313.113281 206.289062 313.289062 Z M 124.273438 319.113281 L 202.316406 308.945312 L 152.917969 157.835938 L 72.953125 162.125 Z M 124.273438 319.113281 " fill-opacity="1" fill-rule="nonzero"/></g></g></g><g clip-path="url(#clip-30)"><g clip-path="url(#clip-31)"><g clip-path="url(#clip-32)"><path fill="rgb(100%, 61.959839%, 17.248535%)" d="M 186.570312 133.671875 L 154.425781 154.652344 L 205.320312 310.320312 L 278.625 270.050781 L 225.6875 108.132812 L 204.289062 122.34375 " fill-opacity="1" fill-rule="nonzero"/></g></g></g><g clip-path="url(#clip-33)"><g clip-path="url(#clip-34)"><g clip-path="url(#clip-35)"><path fill="rgb(84.309387%, 49.01886%, 7.839966%)" d="M 206.074219 312.632812 C 205.542969 312.808594 204.960938 312.792969 204.429688 312.582031 C 203.757812 312.316406 203.238281 311.761719 203.015625 311.074219 L 152.121094 155.40625 C 151.78125 154.359375 152.183594 153.214844 153.101562 152.617188 L 185.246094 131.632812 C 186.363281 130.902344 187.871094 131.21875 188.605469 132.34375 C 189.335938 133.46875 189.019531 134.976562 187.898438 135.707031 L 157.3125 155.675781 L 206.714844 306.78125 L 275.691406 268.886719 L 224.378906 111.921875 L 205.628906 124.371094 C 204.511719 125.113281 203.007812 124.804688 202.269531 123.6875 C 201.527344 122.566406 201.832031 121.058594 202.949219 120.316406 L 224.347656 106.105469 C 224.976562 105.6875 225.769531 105.589844 226.484375 105.839844 C 227.199219 106.089844 227.757812 106.65625 227.996094 107.378906 L 280.929688 269.296875 C 281.292969 270.410156 280.816406 271.621094 279.792969 272.183594 L 206.488281 312.453125 C 206.355469 312.527344 206.214844 312.585938 206.074219 312.632812 Z M 206.074219 312.632812 " fill-opacity="1" fill-rule="nonzero"/></g></g></g></svg>