<?xml version="1.0" encoding="UTF-8"?><svg xmlns="http://www.w3.org/2000/svg" xmlns:xlink="http://www.w3.org/1999/xlink" width="375" zoomAndPan="magnify" viewBox="0 0 375 374.999991" height="374.999991" preserveAspectRatio="xMidYMid meet" version="1.0"><defs><clipPath id="clip-0"><path d="M 280 309 L 356 309 L 356 374 L 280 374 Z M 280 309 " clip-rule="nonzero"/></clipPath><clipPath id="clip-1"><path d="M 287.6875 304.25 L 366.550781 322.71875 L 354.238281 375.296875 L 275.371094 356.828125 Z M 287.6875 304.25 " clip-rule="nonzero"/></clipPath><clipPath id="clip-2"><path d="M 287.6875 304.25 L 366.550781 322.71875 L 354.238281 375.296875 L 275.371094 356.828125 Z M 287.6875 304.25 " clip-rule="nonzero"/></clipPath></defs><g clip-path="url(#clip-0)"><g clip-path="url(#clip-1)"><g clip-path="url(#clip-2)"><path fill="rgb(96.078491%, 30.589294%, 63.529968%)" d="M 284.128906 358.570312 L 284.644531 358.691406 C 287.394531 359.035156 290.859375 357.371094 294.425781 353.984375 L 295.394531 352.941406 C 301.746094 346.40625 302.238281 345.855469 318.636719 349.699219 C 335.039062 353.539062 335.234375 354.25 338.082031 362.941406 L 338.546875 364.316406 C 340.179688 368.921875 342.53125 372.003906 345.164062 372.863281 C 346.722656 373.410156 348.285156 373.171875 349.710938 372.238281 C 355.902344 368.199219 358.144531 338.796875 353.324219 324.636719 C 352.148438 321.164062 342.949219 317.441406 340.917969 317.628906 C 339.738281 317.777344 338.574219 318.109375 337.355469 318.425781 C 334.53125 319.152344 331.242188 320.070312 325.871094 318.8125 C 320.5 317.554688 317.945312 315.328125 315.765625 313.308594 C 314.816406 312.484375 313.976562 311.683594 312.929688 311.015625 C 311.261719 309.902344 301.308594 309.140625 298.703125 311.785156 C 288.136719 322.40625 277.050781 349.671875 280.859375 356.054688 C 281.632812 357.382812 282.757812 358.25 284.128906 358.570312 Z M 341.6875 338.804688 C 341.605469 339.148438 341.324219 339.324219 341.039062 339.257812 L 337.609375 338.453125 C 337.265625 338.375 337.046875 338.019531 337.113281 337.734375 L 337.917969 334.304688 C 337.957031 334.132812 338.125 333.929688 338.308594 333.914062 L 340.28125 333.226562 C 340.476562 333.152344 340.761719 333.21875 340.90625 333.375 L 342.367188 334.863281 C 342.511719 335.015625 342.53125 335.203125 342.488281 335.375 Z M 345.027344 329.933594 L 348.457031 330.738281 C 348.800781 330.820312 348.976562 331.101562 348.894531 331.445312 L 348.09375 334.875 C 348.011719 335.21875 347.730469 335.394531 347.386719 335.3125 L 343.957031 334.511719 C 343.785156 334.472656 343.585938 334.304688 343.566406 334.117188 L 342.882812 332.148438 C 342.808594 331.949219 342.863281 331.722656 343.03125 331.519531 L 344.519531 330.058594 C 344.601562 329.957031 344.800781 329.882812 345.027344 329.933594 Z M 340.328125 324.007812 C 340.410156 323.664062 340.75 323.503906 341.089844 323.582031 L 344.519531 324.386719 C 344.863281 324.464844 345.023438 324.804688 344.957031 325.09375 L 344.152344 328.523438 C 344.113281 328.695312 343.945312 328.898438 343.761719 328.914062 L 341.792969 329.601562 C 341.664062 329.628906 341.535156 329.660156 341.480469 329.648438 C 341.421875 329.632812 341.265625 329.535156 341.21875 329.464844 L 339.761719 327.976562 C 339.546875 327.867188 339.484375 327.613281 339.523438 327.441406 Z M 333.980469 327.953125 C 334.058594 327.609375 334.457031 327.460938 334.742188 327.527344 L 338.171875 328.328125 C 338.34375 328.371094 338.542969 328.539062 338.5625 328.722656 L 339.246094 330.691406 C 339.320312 330.890625 339.265625 331.121094 339.097656 331.320312 L 337.609375 332.785156 C 337.457031 332.929688 337.257812 333.003906 337.085938 332.960938 L 333.65625 332.160156 C 333.3125 332.078125 333.082031 331.785156 333.164062 331.441406 Z M 329.023438 327.753906 C 329.585938 327.40625 330.328125 327.578125 330.621094 328.128906 C 330.796875 328.414062 330.84375 328.726562 330.777344 329.011719 C 330.710938 329.296875 330.527344 329.554688 330.246094 329.730469 C 329.964844 329.90625 329.652344 329.953125 329.367188 329.886719 C 329.082031 329.820312 328.820312 329.640625 328.648438 329.355469 C 328.472656 329.074219 328.425781 328.761719 328.492188 328.476562 C 328.558594 328.191406 328.753906 327.875 329.023438 327.753906 Z M 330.890625 335.734375 C 333.40625 336.324219 334.980469 338.863281 334.390625 341.382812 C 333.800781 343.898438 331.261719 345.476562 328.746094 344.886719 C 326.234375 344.296875 324.65625 341.757812 325.246094 339.238281 C 325.835938 336.722656 328.375 335.144531 330.890625 335.734375 Z M 324.53125 324.53125 C 326.132812 324.90625 327.082031 326.515625 326.71875 328.0625 C 326.34375 329.664062 324.734375 330.613281 323.191406 330.25 C 321.59375 329.878906 320.644531 328.265625 321.003906 326.722656 C 321.378906 325.121094 322.933594 324.15625 324.53125 324.53125 Z M 317.535156 325.066406 C 318.097656 324.714844 318.84375 324.890625 319.136719 325.441406 C 319.308594 325.722656 319.355469 326.035156 319.289062 326.320312 C 319.222656 326.605469 319.042969 326.867188 318.761719 327.042969 C 318.535156 327.230469 318.164062 327.265625 317.878906 327.199219 C 317.59375 327.128906 317.335938 326.949219 317.160156 326.667969 C 316.984375 326.382812 316.9375 326.070312 317.003906 325.785156 C 317.070312 325.5 317.265625 325.183594 317.535156 325.066406 Z M 310.996094 333.429688 L 311.796875 329.996094 C 311.878906 329.652344 312.21875 329.492188 312.503906 329.558594 L 315.988281 330.375 C 316.332031 330.457031 316.449219 330.722656 316.371094 331.066406 L 315.566406 334.5 L 318.996094 335.300781 C 319.339844 335.382812 319.511719 335.664062 319.433594 336.007812 L 318.628906 339.441406 C 318.550781 339.78125 318.265625 339.957031 317.925781 339.878906 L 314.496094 339.074219 L 313.679688 342.5625 C 313.597656 342.90625 313.328125 343.023438 313.042969 342.957031 L 309.558594 342.140625 C 309.214844 342.0625 309.039062 341.777344 309.105469 341.492188 L 309.921875 338.003906 L 306.496094 337.199219 C 306.152344 337.121094 305.988281 336.78125 306.058594 336.496094 L 306.859375 333.0625 C 306.941406 332.71875 307.28125 332.558594 307.566406 332.625 Z M 306.074219 318.398438 C 308.589844 318.988281 310.164062 321.53125 309.574219 324.046875 C 308.984375 326.5625 306.445312 328.140625 303.929688 327.550781 C 301.417969 326.960938 299.839844 324.421875 300.429688 321.90625 C 301.019531 319.386719 303.558594 317.8125 306.074219 318.398438 Z M 306.074219 318.398438 " fill-opacity="1" fill-rule="nonzero"/></g></g></g></svg>