<svg id="Calque_2" data-name="Calque 2" xmlns="http://www.w3.org/2000/svg" viewBox="0 0 285.53 273.77"><defs><style>.cls-1{fill:#fff;}</style></defs><path class="cls-1" d="M243.5,126.5l-18,19s-10-15-28,4-51,51-51,51-21,14.92,0,33.46,100,101.54,100,101.54l66-64s28-31,74-1c0,0,17,14,3,27l-75,76s-30,28-61,2l16-18s16,13,28-4l67-66s-13-12-36,3l-85,84s-27,27-58,2l-61-61s-28-27,0-60l17,17s-12,18,5,30l54,54s14,13,30-4l-108-107s-21-25-3-52l61-63S204.5,99.5,243.5,126.5Z" transform="translate(-112.06 -113.35)"/><path class="cls-1" d="M391.82,202.72l-73-73s-30-34-64-4l-101.5,101.5,17,17,80-79,63.5,63.5s29,27,69,6C382.82,234.72,408.82,220.72,391.82,202.72Zm-65.21,3.95-59-59c17-18,28-4,28-4l71,71C341.61,223.67,326.61,206.67,326.61,206.67Z" transform="translate(-112.06 -113.35)"/></svg>